<?xml version="1.0" encoding="UTF-8"?>
<svg xmlns="http://www.w3.org/2000/svg" width="1792.000000pt" height="2400.000000pt" viewBox="0 0 1792.000000 2400.000000">
<rect x="0.0" y="0.0" width="1792.0" height="2400.0" fill="#F7F2E8"/>
<g transform="translate(0.000000,2400.000000) scale(0.100000,-0.100000)"
fill="#0E0E10" stroke="none">
<path d="M11705 20390 c-550 -38 -1108 -114 -1735 -235 -129 -25 -239 -45
-245 -45 -6 0 -10 39 -10 106 0 103 -1 106 -28 130 -20 17 -40 24 -68 24 -64
0 -95 -42 -169 -228 -19 -49 -42 -89 -55 -98 -12 -8 -107 -33 -211 -55 -245
-53 -861 -208 -1179 -297 -137 -39 -321 -89 -408 -112 l-158 -41 -97 49 c-124
64 -217 96 -345 123 -264 54 -558 29 -802 -68 -301 -119 -468 -308 -382 -433
29 -44 77 -67 171 -85 240 -46 613 8 1323 191 73 19 139 34 146 34 23 0 143
-106 213 -187 213 -250 377 -606 493 -1071 86 -343 111 -539 118 -917 l5 -280
-100 -280 c-86 -241 -304 -899 -387 -1165 -44 -142 -161 -578 -188 -700 -14
-63 -36 -178 -48 -256 -26 -168 -22 -238 17 -279 23 -25 31 -27 75 -23 40 4
57 12 85 39 148 143 379 715 523 1294 100 404 143 654 162 940 l11 180 53 145
c30 80 112 307 183 505 181 501 538 1469 739 2005 55 146 127 338 159 428 33
90 66 167 74 172 33 18 687 143 1020 194 1091 170 1848 167 2245 -9 93 -41
122 -68 130 -117 9 -54 60 -108 102 -108 60 0 109 67 96 132 -37 197 -326 336
-808 388 -137 15 -562 20 -720 10z m-2375 -563 c0 -16 -155 -460 -245 -702
-161 -432 -404 -1101 -581 -1600 -41 -115 -78 -217 -81 -225 -4 -8 -10 30 -14
85 -25 321 -141 861 -243 1133 -140 372 -272 596 -479 808 l-69 72 33 10 c19
6 80 23 136 37 56 14 232 61 390 105 261 73 596 159 993 253 174 42 160 40
160 24z m-2465 -217 c39 -6 99 -18 135 -26 73 -18 240 -84 240 -94 0 -13 -311
-91 -595 -150 -221 -46 -334 -60 -485 -59 -134 0 -199 12 -208 37 -2 6 21 36
51 66 100 97 347 202 532 225 98 12 248 12 330 1z m1364 -3536 c-36 -198 -165
-644 -307 -1054 -112 -325 -59 -79 93 435 94 316 214 689 221 683 2 -3 -1 -31
-7 -64z"/>
<path d="M15999 18821 c-16 -16 -29 -37 -29 -46 0 -21 28 -75 40 -75 5 0 19
-14 31 -31 100 -140 -37 -445 -297 -660 -349 -290 -745 -418 -1349 -436 -279
-8 -505 7 -1060 72 -334 39 -388 44 -605 60 -747 54 -1392 -62 -1985 -358
-157 -78 -459 -253 -554 -321 -41 -29 -44 -30 -55 -12 -6 10 -59 87 -118 170
-123 173 -154 229 -168 305 -24 127 26 247 160 382 84 85 148 130 218 155 104
35 96 -73 -18 -222 -56 -75 -63 -93 -58 -150 2 -33 8 -42 36 -56 67 -33 141
21 207 152 67 133 81 231 44 307 -57 118 -202 129 -391 31 -63 -32 -105 -65
-174 -133 -156 -154 -216 -269 -217 -415 -1 -134 46 -228 229 -458 90 -112
133 -177 124 -185 -3 -2 -59 -44 -125 -94 -124 -93 -299 -246 -372 -325 -64
-71 -131 -166 -171 -243 -34 -65 -37 -76 -37 -161 0 -82 3 -94 28 -132 42 -64
110 -95 223 -100 69 -3 105 0 145 13 142 46 292 155 388 281 66 88 146 249
167 339 22 97 14 226 -20 325 -15 41 -29 83 -32 92 -7 21 89 85 310 208 461
257 834 392 1256 455 200 30 411 45 619 45 244 0 369 -10 1031 -84 402 -45
511 -54 750 -62 425 -14 813 36 1100 143 474 176 813 482 932 839 32 99 32
240 0 306 -52 105 -142 140 -203 79z m-5909 -2081 c13 -47 13 -160 -1 -218
-15 -60 -87 -216 -130 -279 -113 -165 -299 -292 -428 -293 -47 0 -57 4 -87 34
-30 30 -34 40 -34 88 1 163 208 414 557 674 97 72 101 72 123 -6z"/>
<path d="M2846 11561 c-3 -5 -78 -221 -166 -481 -89 -260 -172 -494 -185 -520
-23 -45 -76 -100 -96 -100 -5 0 -9 -4 -9 -10 0 -6 47 -10 120 -10 100 0 120 3
120 15 0 8 -9 15 -20 15 -11 0 -27 11 -36 25 -21 32 -15 73 35 225 l37 115
164 0 165 0 43 -120 c29 -80 44 -138 45 -175 2 -50 0 -55 -25 -68 -16 -7 -28
-17 -28 -23 0 -5 68 -9 165 -9 91 0 165 4 165 9 0 5 -15 18 -34 29 -19 11 -42
35 -52 53 -31 61 -179 467 -351 967 -23 66 -42 88 -57 63z m-26 -252 c0 -6 32
-103 70 -214 39 -111 70 -205 70 -209 0 -9 -290 -7 -291 2 -1 16 137 431 144
432 4 0 7 -5 7 -11z"/>
<path d="M7105 11560 c-4 -6 -19 -50 -35 -98 -89 -276 -294 -865 -316 -911
-17 -34 -39 -60 -60 -73 -19 -11 -34 -24 -34 -29 0 -5 54 -9 120 -9 121 0 151
10 91 31 -55 19 -58 52 -18 191 19 68 40 135 46 151 l11 27 159 0 c142 0 161
-2 170 -17 18 -36 91 -264 91 -287 0 -37 -11 -57 -36 -67 -57 -21 -20 -29 141
-29 97 0 165 4 165 9 0 6 -12 16 -27 23 -57 27 -80 81 -268 618 -64 184 -128
368 -142 408 -24 67 -43 87 -58 62z m111 -662 c5 -17 -6 -18 -140 -18 -112 0
-146 3 -146 13 0 11 119 374 136 417 5 12 84 -207 150 -412z"/>
<path d="M11266 11554 c-138 -44 -210 -140 -210 -279 0 -49 6 -83 21 -115 24
-55 95 -125 166 -167 28 -17 90 -52 135 -79 141 -82 202 -168 187 -262 -12
-72 -26 -101 -65 -136 -46 -41 -107 -60 -172 -53 -116 14 -190 89 -257 260 -6
15 -16 25 -21 22 -11 -7 -13 -113 -3 -194 l6 -53 55 -25 c190 -84 395 -67 505
43 61 61 82 116 81 214 0 155 -59 229 -275 350 -201 112 -231 146 -231 256 0
167 166 249 308 152 38 -26 100 -115 109 -158 4 -17 11 -30 16 -30 6 0 9 44 7
108 l-3 107 -70 24 c-90 30 -220 37 -289 15z"/>
<path d="M12411 11554 c-184 -49 -321 -195 -367 -390 -21 -90 -21 -248 0 -339
34 -144 123 -275 232 -342 116 -70 301 -84 418 -30 78 36 139 87 183 154 53
79 30 87 -35 13 -37 -41 -72 -68 -118 -91 -58 -29 -76 -33 -148 -33 -99 -1
-173 29 -239 97 -98 102 -141 229 -141 422 0 321 125 509 338 509 131 0 233
-72 298 -210 17 -36 34 -62 39 -57 5 5 5 58 1 118 l-7 110 -41 22 c-103 57
-295 79 -413 47z"/>
<path d="M13578 11551 c-116 -37 -200 -102 -268 -206 -119 -183 -133 -436 -36
-642 127 -266 451 -363 695 -209 70 45 128 112 171 199 173 352 11 790 -321
866 -68 16 -178 12 -241 -8z m238 -47 c86 -41 164 -153 199 -289 23 -85 30
-274 16 -376 -25 -168 -98 -301 -195 -352 -31 -16 -58 -22 -116 -22 -66 0 -82
4 -130 31 -131 74 -210 265 -210 509 0 270 97 463 260 516 38 13 133 3 176
-17z"/>
<path d="M1487 11543 c-3 -5 -8 -44 -12 -88 -3 -44 -9 -90 -12 -102 -9 -38 22
-27 36 13 19 52 79 108 132 123 24 7 73 13 109 14 l65 2 3 -466 c2 -514 1
-527 -55 -565 -18 -12 -29 -24 -26 -28 4 -3 75 -6 160 -6 153 0 182 7 128 32
-51 23 -53 35 -56 553 l-4 480 74 -2 c124 -4 181 -35 227 -124 36 -72 48 -64
40 29 -4 42 -10 92 -13 110 l-5 32 -394 0 c-216 0 -395 -3 -397 -7z"/>
<path d="M3580 11541 c0 -6 14 -18 31 -26 58 -30 59 -41 59 -515 0 -479 0
-483 -65 -521 -19 -12 -35 -25 -35 -30 0 -5 54 -9 120 -9 117 0 149 9 98 29
-35 13 -56 42 -68 94 -12 55 -13 810 -1 802 5 -2 46 -103 91 -222 46 -120 123
-324 172 -453 49 -129 94 -239 99 -245 22 -22 25 -14 263 675 l91 265 8 -90
c4 -49 6 -241 5 -425 -4 -358 -7 -377 -54 -399 -53 -24 -23 -31 131 -31 158 0
181 6 127 34 -56 29 -57 32 -60 518 -3 493 -3 491 58 523 55 28 35 36 -87 33
l-117 -3 -84 -235 c-46 -129 -115 -323 -152 -430 -65 -186 -69 -194 -80 -165
-6 17 -38 100 -71 185 -32 85 -101 265 -152 400 l-92 245 -118 3 c-74 2 -117
-1 -117 -7z"/>
<path d="M4980 11544 c0 -4 17 -21 38 -39 l37 -33 3 -413 c4 -506 2 -532 -44
-576 -19 -17 -34 -34 -34 -37 0 -3 72 -6 160 -6 88 0 160 4 160 9 0 5 -14 14
-31 22 -58 23 -59 32 -59 533 l0 454 25 31 c14 16 35 33 46 36 10 4 17 11 14
16 -7 10 -315 13 -315 3z"/>
<path d="M5590 11542 c0 -5 11 -14 24 -20 14 -6 33 -23 43 -39 16 -25 18 -61
21 -393 2 -201 0 -412 -3 -470 -7 -102 -8 -105 -41 -137 -19 -17 -34 -34 -34
-37 0 -3 70 -6 155 -6 158 0 181 6 126 34 -15 8 -33 28 -40 43 -14 34 -20 457
-7 470 5 4 10 4 13 -2 14 -37 364 -503 392 -522 30 -20 46 -23 137 -23 57 0
104 4 104 8 0 5 -18 17 -39 27 -49 22 -90 64 -178 185 -110 151 -303 428 -303
435 0 9 234 279 293 338 26 27 72 60 102 73 30 14 55 30 55 35 0 5 -57 9 -130
9 -98 0 -130 -3 -130 -13 0 -7 10 -17 23 -22 33 -15 25 -57 -21 -118 -60 -79
-311 -372 -322 -375 -13 -5 -13 287 0 383 8 62 13 74 44 103 20 18 36 34 36
37 0 3 -72 5 -160 5 -88 0 -160 -4 -160 -8z"/>
<path d="M14506 11518 c-8 -49 -26 -176 -26 -182 0 -17 29 -3 33 17 11 40 67
105 110 126 28 13 68 21 122 23 l80 3 0 -493 0 -494 -37 -34 c-21 -19 -38 -36
-38 -39 0 -3 70 -5 155 -5 85 0 155 4 155 8 0 5 -11 14 -26 20 -52 25 -54 40
-54 563 l0 482 78 -7 c124 -12 188 -50 228 -137 28 -63 37 -48 30 49 -4 48
-10 97 -13 110 l-5 22 -394 0 -393 0 -5 -32z"/>
<path d="M15626 11538 c-3 -7 -10 -55 -16 -106 -12 -94 -7 -123 14 -88 75 126
116 154 236 158 l75 3 3 -478 c2 -519 1 -534 -52 -559 -15 -6 -26 -15 -26 -20
0 -4 72 -8 160 -8 88 0 160 3 160 8 -1 4 -15 16 -33 27 -19 12 -37 35 -44 55
-8 25 -12 169 -12 509 l-1 474 77 -7 c42 -4 92 -14 112 -22 47 -20 95 -66 116
-115 18 -40 32 -49 40 -26 2 6 -1 55 -8 107 l-12 95 -393 3 c-309 2 -393 0
-396 -10z"/>
<path d="M9597 9305 c-80 -28 -122 -102 -121 -211 1 -112 61 -193 154 -209
132 -22 229 68 230 213 0 163 -120 258 -263 207z m133 -40 c46 -24 70 -81 70
-165 0 -51 -6 -82 -20 -110 -34 -68 -113 -90 -177 -50 -49 29 -67 73 -67 160
0 52 5 85 17 108 35 64 114 90 177 57z"/>
<path d="M6730 9101 l0 -211 25 0 c25 0 25 1 25 90 l0 90 49 0 c64 0 87 -20
130 -109 31 -63 38 -71 63 -71 15 0 28 3 28 6 0 17 -86 167 -100 177 -16 9
-15 13 11 34 34 29 45 78 29 127 -18 55 -50 70 -162 74 l-98 4 0 -211z m184
148 c20 -16 26 -29 26 -59 0 -54 -34 -80 -106 -80 l-54 0 0 80 0 80 54 0 c39
0 60 -6 80 -21z"/>
<path d="M7320 9100 l0 -210 135 0 c128 0 135 1 135 20 0 19 -7 20 -110 20
l-110 0 0 85 0 85 100 0 c93 0 100 1 100 20 0 19 -7 20 -100 20 l-100 0 0 65
0 65 105 0 c98 0 105 1 105 20 0 19 -7 20 -130 20 l-130 0 0 -210z"/>
<path d="M7976 9302 c-7 -12 -156 -400 -156 -407 0 -3 12 -5 28 -5 24 0 29 6
45 60 l17 60 99 0 98 0 18 -60 c17 -55 21 -60 47 -60 15 0 28 1 28 3 0 1 -36
94 -79 207 -77 200 -80 205 -109 208 -17 2 -33 -1 -36 -6z m77 -159 l36 -93
-79 0 -79 0 30 83 c17 45 34 90 36 100 8 26 16 13 56 -90z"/>
<path d="M8450 9100 l0 -210 130 0 c123 0 130 1 130 20 0 19 -7 20 -105 20
l-105 0 0 190 0 190 -25 0 -25 0 0 -210z"/>
<path d="M8900 9290 c0 -18 7 -20 75 -20 l75 0 0 -190 0 -190 25 0 25 0 0 190
0 190 75 0 c68 0 75 2 75 20 0 19 -7 20 -175 20 -168 0 -175 -1 -175 -20z"/>
<path d="M10140 9101 l0 -211 25 0 c25 0 25 1 25 90 l0 90 49 0 c64 0 87 -20
130 -109 31 -63 38 -71 63 -71 15 0 28 3 28 6 0 17 -86 167 -100 177 -16 9
-15 13 11 34 34 29 45 78 29 127 -18 55 -50 70 -162 74 l-98 4 0 -211z m184
148 c20 -16 26 -29 26 -59 0 -54 -34 -80 -106 -80 l-54 0 0 80 0 80 54 0 c39
0 60 -6 80 -21z"/>
<path d="M10882 9299 c-49 -15 -118 -89 -132 -141 -25 -90 11 -182 92 -235 35
-24 52 -28 108 -28 56 0 73 4 108 28 23 15 54 46 69 69 24 35 28 52 28 108 0
56 -4 73 -28 108 -53 81 -155 119 -245 91z m175 -55 c49 -39 73 -87 73 -144 0
-96 -71 -171 -168 -177 -68 -5 -111 15 -157 71 -27 34 -30 45 -30 106 0 61 3
72 30 106 46 56 89 76 157 71 46 -2 66 -10 95 -33z"/>
<path d="M10860 9105 l0 -115 25 0 c23 0 25 4 25 45 0 38 3 45 19 45 18 0 59
-39 79 -76 5 -9 19 -14 32 -12 22 3 22 4 -12 48 l-35 46 24 17 c23 18 31 59
15 84 -12 20 -60 33 -118 33 l-54 0 0 -115z m134 63 c17 -27 -5 -52 -48 -56
l-36 -3 0 41 0 41 36 -3 c22 -2 42 -10 48 -20z"/>
</g>
<g transform="translate(0.000000,2400.000000) scale(0.100000,-0.100000)"
fill="#C8A24B" stroke="none">
<path d="M9170 12720 c-247 -30 -475 -201 -580 -434 -67 -150 -64 -96 -68
-1103 l-3 -913 751 0 751 0 -3 913 c-3 854 -5 916 -22 977 -108 378 -445 606
-826 560z m210 -54 c214 -39 417 -189 509 -378 74 -151 71 -114 78 -988 3
-432 3 -829 -2 -883 l-7 -98 -41 3 -42 3 -5 875 -5 875 -23 65 c-42 115 -83
182 -162 260 -41 42 -98 88 -127 103 -115 61 -277 82 -415 52 -203 -43 -365
-197 -442 -420 -20 -58 -20 -84 -23 -938 l-4 -878 -47 3 -47 3 2 873 c2 727 5
883 17 936 64 275 310 499 588 535 92 12 115 12 198 -3z m13 -161 c193 -50
353 -212 404 -408 14 -55 16 -162 17 -917 l0 -855 -542 -3 c-430 -2 -542 0
-542 10 0 7 0 398 0 869 0 826 1 859 20 920 57 184 219 342 393 385 72 17 182
17 250 -1z"/>
<path d="M9587 11359 c-48 -28 -40 -107 13 -129 44 -18 99 18 100 66 0 54 -65
91 -113 63z"/>
</g>
</svg>
